<svg xmlns="http://www.w3.org/2000/svg" width="24" height="24" viewBox="0 0 24 24"><clipPath id="a"><path d="M0 0h20v20H0z"/></clipPath><path fill="none" d="M0 0h24v24H0z"/><g clip-path="url(#a)" transform="translate(2 2)"><path fill="none" d="M0 0h20v20H0z"/><path fill="#277eb5" d="m5.914 17.513-.553-.332 8.534-4.981V7.9l-3.06-1.783 4.812-2.89 3.1 1.847v9.95L10.193 20zm-4.247-2.587V4.975L10.225 0l4.279 2.488.553.331L6.522 7.8v4.3l3.061 1.779-4.816 2.894z"/><path fill="#dbaf2e" d="M10.209 12.916A2.917 2.917 0 1 0 7.292 10a2.92 2.92 0 0 0 2.917 2.916"/></g></svg>